# xmcd
#
# Track frame offsets:
#	150
#	22650
#	44910
#	73570
#	85568
#	106498
#	119608
#	146916
#	169116
#	191391
#	218466
#	231621
#	248421
#	272706
#
# Disc length: 3887 seconds
#
# Revision: 1
# Processed by: cddbd v1.5.1PL0 Copyright (c) Steve Scherf et al.
# Submitted via: audiograbber 1.83.01
#
DISCID=c30f2d0e
DTITLE=New Age Music and New Sounds - Vol. 143 (Beyond the dark)
DYEAR=2004
DGENRE=New Age
TTITLE0=Latin Vibe - Feel the latin vibe
TTITLE1=David Visen and Carlos Campos - Indra story
TTITLE2=Azam Ali - Lasse pour quoi
TTITLE3=Energipsy - Mauresque
TTITLE4=Xela - Softeness of senses
TTITLE5=Marco Milone - The lady of love
TTITLE6=Tau - Ma oh ma
TTITLE7=Tito Rinesi - Kalinikta
TTITLE8=Celtic Sound System - Shannon morn
TTITLE9=Ensemble Du Verre - Russian sorrow
TTITLE10=Agniman - Light channel
TTITLE11=Energipsy - Larueda de la vida
TTITLE12=Bob Baldwin - Stand tall
TTITLE13=Andreas Wollenweider - What if it wasn't a dream
EXTD=YEAR: 2004
EXTT0=
EXTT1=
EXTT2=
EXTT3=
EXTT4=
EXTT5=
EXTT6=
EXTT7=
EXTT8=
EXTT9=
EXTT10=
EXTT11=
EXTT12=
EXTT13=
PLAYORDER=
